Coordinates
version=1
nRows=9
nColumns=63
inDegrees=yes

Units are S.I. units (second, meters, Newtons, ...)
If the header above contains a line with 'inDegrees', this indicates whether rotational values are in degrees (yes) or radians (no).

endheader
time	pelvis_tilt	pelvis_list	pelvis_rotation	pelvis_tx	pelvis_ty	pelvis_tz	hip_flexion_r	hip_adduction_r	hip_rotation_r	knee_angle_r	knee_angle_r_beta	ankle_angle_r	subtalar_angle_r	mtp_angle_r	hip_flexion_l	hip_adduction_l	hip_rotation_l	knee_angle_l	knee_angle_l_beta	ankle_angle_l	subtalar_angle_l	mtp_angle_l	L5_S1_Flex_Ext	L5_S1_Lat_Bending	L5_S1_axial_rotation	L4_L5_Flex_Ext	L4_L5_Lat_Bending	L4_L5_axial_rotation	L3_L4_Flex_Ext	L3_L4_Lat_Bending	L3_L4_axial_rotation	L2_L3_Flex_Ext	L2_L3_Lat_Bending	L2_L3_axial_rotation	L1_L2_Flex_Ext	L1_L2_Lat_Bending	L1_L2_axial_rotation	L1_T12_Flex_Ext	L1_T12_Lat_Bending	L1_T12_axial_rotation	Abs_r3	Abs_r2	Abs_r1	Abs_t1	Abs_t2	neck_flexion	neck_bending	neck_rotation	arm_flex_r	arm_add_r	arm_rot_r	elbow_flex_r	pro_sup_r	wrist_flex_r	wrist_dev_r	arm_flex_l	arm_add_l	arm_rot_l	elbow_flex_l	pro_sup_l	wrist_flex_l	wrist_dev_l
      0.00000000	      1.16022284	     -6.73554825	     90.44237227	      0.13636627	      0.82232416	      0.52623286	      5.79905641	      0.79891204	     15.44692375	      1.32309873	      0.02309243	     29.80843923	    -13.18173726	      0.00000000	     10.31805621	     -0.26149343	     15.98809616	      8.62533770	      0.15054054	     35.03720843	    -15.27152171	      0.00000000	      1.19726327	      0.55100027	      0.74705958	      2.22343762	      0.73283036	      0.79375080	      1.96698383	      1.33970206	      0.79375080	      1.36835219	      1.33970206	      0.65367713	      1.11177868	      1.12359976	      0.60698591	      0.68411623	      0.85349942	      0.56029468	      8.55193183	      6.23302529	      4.15492126	      0.00000000	      0.00000000	     28.45638986	     -2.52515517	      7.31462935	     19.23471455	     -1.10561986	    119.11115488	     13.45411280	      4.88830998	      4.22044318	     -4.98079533	     23.34367279	      6.82544175	    121.46962060	     16.68014653	      5.81592381	      4.07775914	    -11.72357436
      0.01694915	      1.11630885	     -5.70724065	     91.28600354	      0.13554149	      0.82503051	      0.52569302	      4.56535527	      0.77032404	     14.76441725	      1.50544496	      0.02627497	     29.66602482	    -13.87404820	      0.00000000	      9.83223081	      0.00220927	     17.43382474	     10.54041341	      0.18396492	     34.36867477	    -15.03105488	      0.00000000	      1.02750807	      0.52042655	      0.76076389	      1.90818523	      0.69216731	      0.80831164	      1.68809301	      1.26536512	      0.80831164	      1.17433897	      1.26536512	      0.66566841	      0.95414399	      1.06125382	      0.61812066	      0.58711811	      0.80614073	      0.57057292	      7.33938738	      5.88716923	      4.23114055	      0.00000000	      0.00000000	     28.42985416	     -1.37233599	      7.28976608	     19.41207211	     -0.97134593	    117.69882979	     12.74829066	      4.03089957	      4.79669411	     -5.78357648	     23.11839305	      6.91926774	    119.86976566	     16.63826589	      5.00976709	      3.36810480	    -10.92463951
      0.03389831	      2.02048631	     -5.68912493	     93.13499563	      0.13266006	      0.82572011	      0.52732193	      4.56096596	      1.60013353	     12.76206626	      1.65465093	      0.02887911	     29.61035907	    -13.95619790	      0.00000000	     11.97355951	     -0.35925814	     17.32983679	     15.11571159	      0.26381894	     35.70203585	    -12.23413674	      0.00000000	      1.00996324	      0.62636417	      0.42380114	      1.87560274	      0.83306434	      0.45028871	      1.65926861	      1.52294184	      0.45028871	      1.15428699	      1.52294184	      0.37082600	      0.93785187	      1.27728181	      0.34433842	      0.57709300	      0.97023809	      0.31785085	      7.21406645	      7.08555673	      2.35705479	      0.00000000	      0.00000000	     28.41066904	     -0.38915735	      9.20839843	     19.98338498	     -1.49389535	    113.46068627	     13.31845469	      4.87927623	      4.62911938	     -5.09549035	     22.60137822	      6.72196875	    112.03029491	     17.25826527	      6.55175769	      2.14486126	     -9.31427451
      0.05084746	      2.08468050	     -5.53764558	     93.25083609	      0.13196349	      0.82684599	      0.52637015	      4.30136466	      1.65557660	     12.71934199	      1.59532812	      0.02784373	     29.71161064	    -13.96127880	      0.00000000	     11.82273961	     -0.39954673	     17.68856977	     15.49233795	      0.27039231	     35.20827828	    -11.94649058	      0.00000000	      1.00359726	      0.64101784	      0.43574566	      1.86378047	      0.85255373	      0.46297976	      1.64880994	      1.55857078	      0.46297976	      1.14701131	      1.55857078	      0.38127745	      0.93194042	      1.30716358	      0.35404335	      0.57345547	      0.99293663	      0.32680924	      7.16859487	      7.25132201	      2.42348661	      0.00000000	      0.00000000	     28.39121681	     -0.22220605	      9.40447292	     20.34687880	     -1.38093841	    113.23194152	     13.00426501	      4.70835475	      4.61602582	     -5.21269075	     22.82129152	      6.95678113	    111.43026397	     16.88794261	      5.97892753	      1.93028439	     -9.16648864
      0.06779661	      4.41769122	     -5.76866998	     95.33292873	      0.12865861	      0.82617794	      0.53010734	      4.92362133	      3.91425099	      9.39218816	      1.65245305	      0.02884075	     29.72258278	    -12.43761930	      0.00000000	     15.28644967	     -2.69583244	     13.61312458	     21.06106567	      0.36758494	     38.73999737	     -3.68514838	      0.00000000	      1.00667023	      0.95822249	     -0.15070490	      1.86948728	      1.27443591	     -0.16012395	      1.65385852	      2.32982215	     -0.16012395	      1.15052341	      2.32982215	     -0.13186679	      0.93479398	      1.95400729	     -0.12244773	      0.57521137	      1.48428663	     -0.11302867	      7.19054479	     10.83960440	     -0.83817543	      0.00000000	      0.00000000	     28.39902600	      1.03551220	     14.93601647	     22.04505701	     -2.24675647	    112.39076874	     13.85748201	      5.29337250	      4.80956016	     -4.39854803	     23.15243095	      7.13123672	    103.63038328	     17.63833398	      5.63135960	      0.92072719	     -7.49380032
      0.08474576	      5.39640944	     -6.00159787	     95.75236059	      0.12666088	      0.82619802	      0.53087047	      5.25700414	      4.79109724	      8.79115271	      1.43930755	      0.02512066	     29.58629804	    -12.11053279	      0.00000000	     16.28888241	     -3.43230110	     14.00456253	     22.36081300	      0.39026981	     39.07153942	     -3.58317253	      0.00000000	      1.03540167	      1.12700966	     -0.37083087	      1.92284444	      1.49892284	     -0.39400780	      1.70106140	      2.74021128	     -0.39400780	      1.18336057	      2.74021128	     -0.32447701	      0.96147399	      2.29819809	     -0.30130008	      0.59162851	      1.74573796	     -0.27812315	      7.39577057	     12.74895864	     -2.06245004	      0.00000000	      0.00000000	     28.39994678	      1.53187825	     18.62804165	     23.22129589	     -2.63595334	    112.88874927	     14.17673013	      5.50270103	      4.81583462	     -3.83469616	     23.79986880	      7.45812157	    100.72947573	     17.66445868	      4.68551107	      0.47715411	     -6.92942886
      0.10169492	      6.09103000	     -6.34172810	     95.88127226	      0.12526046	      0.82618813	      0.53161497	      5.70356310	      5.38169086	      8.23980646	      1.25640853	      0.02192847	     29.41443815	    -11.49704425	      0.00000000	     17.08817975	     -4.05404065	     13.65698564	     23.02777013	      0.40191041	     39.33819292	     -2.92943133	      0.00000000	      1.07355443	      1.25665416	     -0.50397417	      1.99369793	      1.67135003	     -0.53547256	      1.76374257	      3.05542892	     -0.53547256	      1.22696536	      3.05542892	     -0.44097740	      0.99690264	      2.56256916	     -0.40947901	      0.61342900	      1.94655729	     -0.37798063	      7.66829193	     14.21552314	     -2.80295315	      0.00000000	      0.00000000	     28.40106756	      1.84035796	     21.84376318	     24.32625764	     -2.98591852	    113.08646988	     14.51081591	      5.54161206	      4.72838806	     -3.08037198	     24.58210633	      7.65361542	     97.92976646	     17.80109143	      4.32787500	      0.04202766	     -6.44260282
      0.11864407	      6.46335674	     -6.74817857	     95.82307902	      0.12413577	      0.82628873	      0.53237634	      6.21367440	      5.64438533	      7.71709054	      1.14757930	      0.02002904	     29.21918708	    -10.83356956	      0.00000000	     17.67697067	     -4.39760038	     13.15028257	     23.23021236	      0.40544369	     39.31190252	     -2.35604445	      0.00000000	      1.11149402	      1.34940636	     -0.57322909	      2.06415554	      1.79471045	     -0.60905591	      1.82607352	      3.28094662	     -0.60905591	      1.27032651	      3.28094662	     -0.50157545	      1.03213335	      2.75170944	     -0.46574863	      0.63510768	      2.09023045	     -0.42992182	      7.93929062	     15.26475459	     -3.18812822	      0.00000000	      0.00000000	     28.40322291	      2.06050295	     24.95619199	     25.43320783	     -3.15123541	    114.10110833	     14.37574852	      5.72831009	      4.64863734	     -2.35959885	     25.62287727	      7.76938572	     95.92039586	     17.96005995	      4.63774768	     -0.34328067	     -6.22666281
      0.13559322	      6.35982127	     -7.05907288	     95.72448902	      0.12359074	      0.82655864	      0.53268899	      6.50631724	      5.46366755	      7.57795674	      0.97913782	      0.01708918	     28.84894482	    -10.80564038	      0.00000000	     17.82577188	     -4.25491847	     13.08700502	     22.95521240	      0.40064404	     38.88064186	     -2.25832333	      0.00000000	      1.14950259	      1.35367893	     -0.53444835	      2.13474126	      1.80039298	     -0.56785137	      1.88851781	      3.29133496	     -0.56785137	      1.31376651	      3.29133496	     -0.46764231	      1.06742811	      2.76042208	     -0.43423928	      0.65682578	      2.09684867	     -0.40083626	      8.21078205	     15.31308682	     -2.97244139	      0.00000000	      0.00000000	     28.40962807	      1.75139347	     25.17240871	     26.20620988	     -3.27678776	    114.39182983	     14.10846495	      5.97484784	      4.50265374	     -1.97296846	     26.87430973	      7.86442981	     95.72838203	     17.95524636	      4.71938426	     -0.47726294	     -6.31793488
